<mxfile host="app.diagrams.net" modified="2022-08-05T14:18:08.963Z" agent="5.0 (Windows NT 10.0; Win64; x64) AppleWebKit/537.36 (KHTML, like Gecko) Chrome/103.0.0.0 Safari/537.36" etag="T3QZP6nF6SdRWk1P7sfN" version="20.2.2" type="github">
  <diagram id="i-6YdYUwRHE0JvAj3Jvv" name="Page-1">
    <mxGraphModel dx="2580" dy="2012" grid="1" gridSize="10" guides="1" tooltips="1" connect="1" arrows="1" fold="1" page="1" pageScale="1" pageWidth="850" pageHeight="1100" background="#F1FAEE" math="0" shadow="0">
      <root>
        <mxCell id="0" />
        <mxCell id="1" parent="0" />
        <mxCell id="aT_Ff60bsqaVyr6vF-R_-80" value="" style="edgeStyle=orthogonalEdgeStyle;rounded=0;orthogonalLoop=1;jettySize=auto;html=1;labelBackgroundColor=#F1FAEE;strokeColor=#457B9D;fontColor=#1D3557;" edge="1" parent="1" source="aT_Ff60bsqaVyr6vF-R_-1" target="aT_Ff60bsqaVyr6vF-R_-79">
          <mxGeometry relative="1" as="geometry" />
        </mxCell>
        <mxCell id="aT_Ff60bsqaVyr6vF-R_-1" value="Training" style="rounded=0;whiteSpace=wrap;html=1;fillColor=#A8DADC;strokeColor=#457B9D;fontColor=#1D3557;" vertex="1" parent="1">
          <mxGeometry x="640" y="70" width="150" height="60" as="geometry" />
        </mxCell>
        <mxCell id="aT_Ff60bsqaVyr6vF-R_-62" value="" style="edgeStyle=orthogonalEdgeStyle;rounded=0;orthogonalLoop=1;jettySize=auto;html=1;labelBackgroundColor=#F1FAEE;strokeColor=#457B9D;fontColor=#1D3557;" edge="1" parent="1" source="aT_Ff60bsqaVyr6vF-R_-2" target="aT_Ff60bsqaVyr6vF-R_-61">
          <mxGeometry relative="1" as="geometry" />
        </mxCell>
        <mxCell id="aT_Ff60bsqaVyr6vF-R_-2" value="HR" style="rounded=0;whiteSpace=wrap;html=1;fillColor=#A8DADC;strokeColor=#457B9D;fontColor=#1D3557;" vertex="1" parent="1">
          <mxGeometry x="350" y="70" width="150" height="60" as="geometry" />
        </mxCell>
        <mxCell id="aT_Ff60bsqaVyr6vF-R_-16" style="edgeStyle=orthogonalEdgeStyle;rounded=0;orthogonalLoop=1;jettySize=auto;html=1;labelBackgroundColor=#F1FAEE;strokeColor=#457B9D;fontColor=#1D3557;" edge="1" parent="1" source="aT_Ff60bsqaVyr6vF-R_-3" target="aT_Ff60bsqaVyr6vF-R_-15">
          <mxGeometry relative="1" as="geometry">
            <Array as="points">
              <mxPoint x="160" y="140" />
              <mxPoint x="160" y="140" />
            </Array>
          </mxGeometry>
        </mxCell>
        <mxCell id="aT_Ff60bsqaVyr6vF-R_-3" value="Production" style="rounded=0;whiteSpace=wrap;html=1;fillColor=#A8DADC;strokeColor=#457B9D;fontColor=#1D3557;" vertex="1" parent="1">
          <mxGeometry x="100" y="70" width="150" height="60" as="geometry" />
        </mxCell>
        <mxCell id="aT_Ff60bsqaVyr6vF-R_-7" style="edgeStyle=orthogonalEdgeStyle;rounded=0;orthogonalLoop=1;jettySize=auto;html=1;entryX=1;entryY=0.25;entryDx=0;entryDy=0;labelBackgroundColor=#F1FAEE;strokeColor=#457B9D;fontColor=#1D3557;" edge="1" parent="1" source="aT_Ff60bsqaVyr6vF-R_-4" target="aT_Ff60bsqaVyr6vF-R_-5">
          <mxGeometry relative="1" as="geometry">
            <Array as="points">
              <mxPoint x="505" y="-35" />
              <mxPoint x="505" y="-155" />
            </Array>
          </mxGeometry>
        </mxCell>
        <mxCell id="aT_Ff60bsqaVyr6vF-R_-4" value="Login correct?" style="rhombus;whiteSpace=wrap;html=1;fillColor=#A8DADC;strokeColor=#457B9D;fontColor=#1D3557;" vertex="1" parent="1">
          <mxGeometry x="380" y="-80" width="85" height="90" as="geometry" />
        </mxCell>
        <mxCell id="aT_Ff60bsqaVyr6vF-R_-5" value="Employee Login" style="whiteSpace=wrap;html=1;fillColor=#A8DADC;strokeColor=#457B9D;fontColor=#1D3557;" vertex="1" parent="1">
          <mxGeometry x="365" y="-170" width="120" height="60" as="geometry" />
        </mxCell>
        <mxCell id="aT_Ff60bsqaVyr6vF-R_-8" value="Wrong password/ Mail ID" style="text;html=1;align=center;verticalAlign=middle;resizable=0;points=[];autosize=1;strokeColor=none;fillColor=none;fontColor=#1D3557;" vertex="1" parent="1">
          <mxGeometry x="500" y="-85" width="160" height="30" as="geometry" />
        </mxCell>
        <mxCell id="aT_Ff60bsqaVyr6vF-R_-9" value="" style="endArrow=classic;html=1;rounded=0;exitX=0.5;exitY=1;exitDx=0;exitDy=0;labelBackgroundColor=#F1FAEE;strokeColor=#457B9D;fontColor=#1D3557;" edge="1" parent="1" source="aT_Ff60bsqaVyr6vF-R_-4">
          <mxGeometry width="50" height="50" relative="1" as="geometry">
            <mxPoint x="400" y="80" as="sourcePoint" />
            <mxPoint x="423" y="40" as="targetPoint" />
          </mxGeometry>
        </mxCell>
        <mxCell id="aT_Ff60bsqaVyr6vF-R_-10" value="" style="endArrow=none;html=1;rounded=0;labelBackgroundColor=#F1FAEE;strokeColor=#457B9D;fontColor=#1D3557;" edge="1" parent="1">
          <mxGeometry width="50" height="50" relative="1" as="geometry">
            <mxPoint x="150" y="40" as="sourcePoint" />
            <mxPoint x="710" y="40" as="targetPoint" />
          </mxGeometry>
        </mxCell>
        <mxCell id="aT_Ff60bsqaVyr6vF-R_-11" value="" style="endArrow=classic;html=1;rounded=0;entryX=0.333;entryY=-0.023;entryDx=0;entryDy=0;entryPerimeter=0;labelBackgroundColor=#F1FAEE;strokeColor=#457B9D;fontColor=#1D3557;" edge="1" parent="1" target="aT_Ff60bsqaVyr6vF-R_-3">
          <mxGeometry width="50" height="50" relative="1" as="geometry">
            <mxPoint x="150" y="40" as="sourcePoint" />
            <mxPoint x="450" y="30" as="targetPoint" />
          </mxGeometry>
        </mxCell>
        <mxCell id="aT_Ff60bsqaVyr6vF-R_-12" value="" style="endArrow=classic;html=1;rounded=0;entryX=0.333;entryY=-0.023;entryDx=0;entryDy=0;entryPerimeter=0;labelBackgroundColor=#F1FAEE;strokeColor=#457B9D;fontColor=#1D3557;" edge="1" parent="1">
          <mxGeometry width="50" height="50" relative="1" as="geometry">
            <mxPoint x="430.05" y="41.38" as="sourcePoint" />
            <mxPoint x="430.00000000000006" y="69.99999999999989" as="targetPoint" />
          </mxGeometry>
        </mxCell>
        <mxCell id="aT_Ff60bsqaVyr6vF-R_-13" value="" style="endArrow=classic;html=1;rounded=0;entryX=0.333;entryY=-0.023;entryDx=0;entryDy=0;entryPerimeter=0;labelBackgroundColor=#F1FAEE;strokeColor=#457B9D;fontColor=#1D3557;" edge="1" parent="1">
          <mxGeometry width="50" height="50" relative="1" as="geometry">
            <mxPoint x="710.05" y="41.379999999999995" as="sourcePoint" />
            <mxPoint x="710" y="69.99999999999989" as="targetPoint" />
          </mxGeometry>
        </mxCell>
        <mxCell id="aT_Ff60bsqaVyr6vF-R_-21" style="edgeStyle=orthogonalEdgeStyle;rounded=0;orthogonalLoop=1;jettySize=auto;html=1;exitX=0.5;exitY=1;exitDx=0;exitDy=0;entryX=0.496;entryY=-0.113;entryDx=0;entryDy=0;entryPerimeter=0;labelBackgroundColor=#F1FAEE;strokeColor=#457B9D;fontColor=#1D3557;" edge="1" parent="1" source="aT_Ff60bsqaVyr6vF-R_-15" target="aT_Ff60bsqaVyr6vF-R_-20">
          <mxGeometry relative="1" as="geometry" />
        </mxCell>
        <mxCell id="aT_Ff60bsqaVyr6vF-R_-15" value="List of vehicle for Vehicle Inspection" style="rounded=0;whiteSpace=wrap;html=1;fillColor=#A8DADC;strokeColor=#457B9D;fontColor=#1D3557;" vertex="1" parent="1">
          <mxGeometry x="100" y="170" width="120" height="60" as="geometry" />
        </mxCell>
        <mxCell id="aT_Ff60bsqaVyr6vF-R_-26" style="edgeStyle=orthogonalEdgeStyle;rounded=0;orthogonalLoop=1;jettySize=auto;html=1;exitX=0.5;exitY=1;exitDx=0;exitDy=0;entryX=0.5;entryY=0;entryDx=0;entryDy=0;labelBackgroundColor=#F1FAEE;strokeColor=#457B9D;fontColor=#1D3557;" edge="1" parent="1" source="aT_Ff60bsqaVyr6vF-R_-19" target="aT_Ff60bsqaVyr6vF-R_-25">
          <mxGeometry relative="1" as="geometry" />
        </mxCell>
        <mxCell id="aT_Ff60bsqaVyr6vF-R_-19" value="" style="swimlane;startSize=0;fillColor=#A8DADC;strokeColor=#457B9D;fontColor=#1D3557;" vertex="1" parent="1">
          <mxGeometry x="60" y="280" width="190" height="170" as="geometry" />
        </mxCell>
        <mxCell id="aT_Ff60bsqaVyr6vF-R_-17" value="Chipper or towed" style="shape=document;whiteSpace=wrap;html=1;boundedLbl=1;fillColor=#A8DADC;strokeColor=#457B9D;fontColor=#1D3557;" vertex="1" parent="aT_Ff60bsqaVyr6vF-R_-19">
          <mxGeometry x="25" y="40" width="120" height="80" as="geometry" />
        </mxCell>
        <mxCell id="aT_Ff60bsqaVyr6vF-R_-18" value="Vehicle Inspection" style="shape=document;whiteSpace=wrap;html=1;boundedLbl=1;fillColor=#A8DADC;strokeColor=#457B9D;fontColor=#1D3557;" vertex="1" parent="aT_Ff60bsqaVyr6vF-R_-19">
          <mxGeometry x="55" y="80" width="120" height="80" as="geometry" />
        </mxCell>
        <mxCell id="aT_Ff60bsqaVyr6vF-R_-20" value="Post trip form" style="text;html=1;align=center;verticalAlign=middle;resizable=0;points=[];autosize=1;strokeColor=none;fillColor=none;fontColor=#1D3557;" vertex="1" parent="aT_Ff60bsqaVyr6vF-R_-19">
          <mxGeometry x="55" width="90" height="30" as="geometry" />
        </mxCell>
        <mxCell id="aT_Ff60bsqaVyr6vF-R_-28" value="" style="edgeStyle=orthogonalEdgeStyle;rounded=0;orthogonalLoop=1;jettySize=auto;html=1;labelBackgroundColor=#F1FAEE;strokeColor=#457B9D;fontColor=#1D3557;" edge="1" parent="1" source="aT_Ff60bsqaVyr6vF-R_-25" target="aT_Ff60bsqaVyr6vF-R_-27">
          <mxGeometry relative="1" as="geometry" />
        </mxCell>
        <mxCell id="aT_Ff60bsqaVyr6vF-R_-25" value="Review the Task received from Admin" style="rounded=0;whiteSpace=wrap;html=1;fillColor=#A8DADC;strokeColor=#457B9D;fontColor=#1D3557;" vertex="1" parent="1">
          <mxGeometry x="95" y="490" width="120" height="60" as="geometry" />
        </mxCell>
        <mxCell id="aT_Ff60bsqaVyr6vF-R_-30" value="" style="edgeStyle=orthogonalEdgeStyle;rounded=0;orthogonalLoop=1;jettySize=auto;html=1;labelBackgroundColor=#F1FAEE;strokeColor=#457B9D;fontColor=#1D3557;" edge="1" parent="1" source="aT_Ff60bsqaVyr6vF-R_-27" target="aT_Ff60bsqaVyr6vF-R_-29">
          <mxGeometry relative="1" as="geometry" />
        </mxCell>
        <mxCell id="aT_Ff60bsqaVyr6vF-R_-33" value="" style="edgeStyle=orthogonalEdgeStyle;rounded=0;orthogonalLoop=1;jettySize=auto;html=1;labelBackgroundColor=#F1FAEE;strokeColor=#457B9D;fontColor=#1D3557;" edge="1" parent="1" source="aT_Ff60bsqaVyr6vF-R_-27">
          <mxGeometry relative="1" as="geometry">
            <mxPoint x="155" y="730" as="targetPoint" />
          </mxGeometry>
        </mxCell>
        <mxCell id="aT_Ff60bsqaVyr6vF-R_-27" value="Task in Scope?" style="rhombus;whiteSpace=wrap;html=1;rounded=0;fillColor=#A8DADC;strokeColor=#457B9D;fontColor=#1D3557;" vertex="1" parent="1">
          <mxGeometry x="107.5" y="620" width="95" height="80" as="geometry" />
        </mxCell>
        <mxCell id="aT_Ff60bsqaVyr6vF-R_-29" value="Report to Manager" style="whiteSpace=wrap;html=1;rounded=0;fillColor=#A8DADC;strokeColor=#457B9D;fontColor=#1D3557;" vertex="1" parent="1">
          <mxGeometry x="-80" y="630" width="120" height="60" as="geometry" />
        </mxCell>
        <mxCell id="aT_Ff60bsqaVyr6vF-R_-31" value="No" style="text;html=1;align=center;verticalAlign=middle;resizable=0;points=[];autosize=1;strokeColor=none;fillColor=none;fontColor=#1D3557;" vertex="1" parent="1">
          <mxGeometry x="50" y="635" width="40" height="30" as="geometry" />
        </mxCell>
        <mxCell id="aT_Ff60bsqaVyr6vF-R_-34" value="Yes" style="text;html=1;align=center;verticalAlign=middle;resizable=0;points=[];autosize=1;strokeColor=none;fillColor=none;fontColor=#1D3557;" vertex="1" parent="1">
          <mxGeometry x="160" y="695" width="40" height="30" as="geometry" />
        </mxCell>
        <mxCell id="aT_Ff60bsqaVyr6vF-R_-38" value="" style="edgeStyle=orthogonalEdgeStyle;rounded=0;orthogonalLoop=1;jettySize=auto;html=1;labelBackgroundColor=#F1FAEE;strokeColor=#457B9D;fontColor=#1D3557;" edge="1" parent="1" source="aT_Ff60bsqaVyr6vF-R_-35" target="aT_Ff60bsqaVyr6vF-R_-37">
          <mxGeometry relative="1" as="geometry" />
        </mxCell>
        <mxCell id="aT_Ff60bsqaVyr6vF-R_-35" value="Pre-job hazard checklist" style="shape=document;whiteSpace=wrap;html=1;boundedLbl=1;fillColor=#A8DADC;strokeColor=#457B9D;fontColor=#1D3557;" vertex="1" parent="1">
          <mxGeometry x="95" y="730" width="120" height="80" as="geometry" />
        </mxCell>
        <mxCell id="aT_Ff60bsqaVyr6vF-R_-39" style="edgeStyle=orthogonalEdgeStyle;rounded=0;orthogonalLoop=1;jettySize=auto;html=1;entryX=1.002;entryY=0.392;entryDx=0;entryDy=0;entryPerimeter=0;labelBackgroundColor=#F1FAEE;strokeColor=#457B9D;fontColor=#1D3557;" edge="1" parent="1" source="aT_Ff60bsqaVyr6vF-R_-37" target="aT_Ff60bsqaVyr6vF-R_-35">
          <mxGeometry relative="1" as="geometry">
            <Array as="points">
              <mxPoint x="235" y="900" />
              <mxPoint x="235" y="761" />
            </Array>
          </mxGeometry>
        </mxCell>
        <mxCell id="aT_Ff60bsqaVyr6vF-R_-41" value="" style="edgeStyle=orthogonalEdgeStyle;rounded=0;orthogonalLoop=1;jettySize=auto;html=1;labelBackgroundColor=#F1FAEE;strokeColor=#457B9D;fontColor=#1D3557;" edge="1" parent="1" source="aT_Ff60bsqaVyr6vF-R_-37">
          <mxGeometry relative="1" as="geometry">
            <mxPoint x="155" y="980" as="targetPoint" />
          </mxGeometry>
        </mxCell>
        <mxCell id="aT_Ff60bsqaVyr6vF-R_-37" value="Completed?" style="rhombus;whiteSpace=wrap;html=1;fillColor=#A8DADC;strokeColor=#457B9D;fontColor=#1D3557;" vertex="1" parent="1">
          <mxGeometry x="115" y="860" width="80" height="80" as="geometry" />
        </mxCell>
        <mxCell id="aT_Ff60bsqaVyr6vF-R_-42" value="Yes" style="text;html=1;align=center;verticalAlign=middle;resizable=0;points=[];autosize=1;strokeColor=none;fillColor=none;fontColor=#1D3557;" vertex="1" parent="1">
          <mxGeometry x="160" y="945" width="40" height="30" as="geometry" />
        </mxCell>
        <mxCell id="aT_Ff60bsqaVyr6vF-R_-46" value="" style="edgeStyle=orthogonalEdgeStyle;rounded=0;orthogonalLoop=1;jettySize=auto;html=1;labelBackgroundColor=#F1FAEE;strokeColor=#457B9D;fontColor=#1D3557;" edge="1" parent="1" source="aT_Ff60bsqaVyr6vF-R_-43" target="aT_Ff60bsqaVyr6vF-R_-45">
          <mxGeometry relative="1" as="geometry" />
        </mxCell>
        <mxCell id="aT_Ff60bsqaVyr6vF-R_-43" value="Employee completes the Job and uploads the photo of job completion" style="whiteSpace=wrap;html=1;fillColor=#A8DADC;strokeColor=#457B9D;fontColor=#1D3557;" vertex="1" parent="1">
          <mxGeometry x="95" y="1090" width="120" height="60" as="geometry" />
        </mxCell>
        <mxCell id="aT_Ff60bsqaVyr6vF-R_-49" style="edgeStyle=orthogonalEdgeStyle;rounded=0;orthogonalLoop=1;jettySize=auto;html=1;entryX=0.5;entryY=1;entryDx=0;entryDy=0;labelBackgroundColor=#F1FAEE;strokeColor=#457B9D;fontColor=#1D3557;" edge="1" parent="1" source="aT_Ff60bsqaVyr6vF-R_-45" target="aT_Ff60bsqaVyr6vF-R_-29">
          <mxGeometry relative="1" as="geometry" />
        </mxCell>
        <mxCell id="aT_Ff60bsqaVyr6vF-R_-45" value="Foreman checks and assess the performance of crew." style="whiteSpace=wrap;html=1;fillColor=#A8DADC;strokeColor=#457B9D;fontColor=#1D3557;" vertex="1" parent="1">
          <mxGeometry x="95" y="1230" width="120" height="60" as="geometry" />
        </mxCell>
        <mxCell id="aT_Ff60bsqaVyr6vF-R_-51" style="edgeStyle=orthogonalEdgeStyle;rounded=0;orthogonalLoop=1;jettySize=auto;html=1;exitX=0.5;exitY=1;exitDx=0;exitDy=0;entryX=0.5;entryY=0;entryDx=0;entryDy=0;labelBackgroundColor=#F1FAEE;strokeColor=#457B9D;fontColor=#1D3557;" edge="1" parent="1" source="aT_Ff60bsqaVyr6vF-R_-50" target="aT_Ff60bsqaVyr6vF-R_-43">
          <mxGeometry relative="1" as="geometry" />
        </mxCell>
        <mxCell id="aT_Ff60bsqaVyr6vF-R_-76" style="edgeStyle=orthogonalEdgeStyle;rounded=0;orthogonalLoop=1;jettySize=auto;html=1;entryX=0;entryY=0.25;entryDx=0;entryDy=0;labelBackgroundColor=#F1FAEE;strokeColor=#457B9D;fontColor=#1D3557;" edge="1" parent="1" source="aT_Ff60bsqaVyr6vF-R_-50" target="aT_Ff60bsqaVyr6vF-R_-65">
          <mxGeometry relative="1" as="geometry" />
        </mxCell>
        <mxCell id="aT_Ff60bsqaVyr6vF-R_-50" value="Checkin" style="rhombus;whiteSpace=wrap;html=1;fillColor=#A8DADC;strokeColor=#457B9D;fontColor=#1D3557;" vertex="1" parent="1">
          <mxGeometry x="107.5" y="975" width="95" height="80" as="geometry" />
        </mxCell>
        <mxCell id="aT_Ff60bsqaVyr6vF-R_-64" value="" style="edgeStyle=orthogonalEdgeStyle;rounded=0;orthogonalLoop=1;jettySize=auto;html=1;labelBackgroundColor=#F1FAEE;strokeColor=#457B9D;fontColor=#1D3557;" edge="1" parent="1" source="aT_Ff60bsqaVyr6vF-R_-61" target="aT_Ff60bsqaVyr6vF-R_-63">
          <mxGeometry relative="1" as="geometry">
            <Array as="points">
              <mxPoint x="405" y="280" />
              <mxPoint x="405" y="280" />
            </Array>
          </mxGeometry>
        </mxCell>
        <mxCell id="aT_Ff60bsqaVyr6vF-R_-61" value="Employee Dashboard" style="whiteSpace=wrap;html=1;rounded=0;fillColor=#A8DADC;strokeColor=#457B9D;fontColor=#1D3557;" vertex="1" parent="1">
          <mxGeometry x="365" y="190" width="120" height="60" as="geometry" />
        </mxCell>
        <mxCell id="aT_Ff60bsqaVyr6vF-R_-66" value="" style="edgeStyle=orthogonalEdgeStyle;rounded=0;orthogonalLoop=1;jettySize=auto;html=1;entryX=0.407;entryY=-0.07;entryDx=0;entryDy=0;entryPerimeter=0;labelBackgroundColor=#F1FAEE;strokeColor=#457B9D;fontColor=#1D3557;" edge="1" parent="1" source="aT_Ff60bsqaVyr6vF-R_-63" target="aT_Ff60bsqaVyr6vF-R_-65">
          <mxGeometry relative="1" as="geometry">
            <mxPoint x="410" y="430" as="targetPoint" />
            <Array as="points" />
          </mxGeometry>
        </mxCell>
        <mxCell id="aT_Ff60bsqaVyr6vF-R_-63" value="Attendance Module" style="whiteSpace=wrap;html=1;rounded=0;fillColor=#A8DADC;strokeColor=#457B9D;fontColor=#1D3557;" vertex="1" parent="1">
          <mxGeometry x="345" y="335" width="120" height="60" as="geometry" />
        </mxCell>
        <mxCell id="aT_Ff60bsqaVyr6vF-R_-68" value="" style="edgeStyle=orthogonalEdgeStyle;rounded=0;orthogonalLoop=1;jettySize=auto;html=1;labelBackgroundColor=#F1FAEE;strokeColor=#457B9D;fontColor=#1D3557;" edge="1" parent="1" source="aT_Ff60bsqaVyr6vF-R_-65" target="aT_Ff60bsqaVyr6vF-R_-67">
          <mxGeometry relative="1" as="geometry" />
        </mxCell>
        <mxCell id="aT_Ff60bsqaVyr6vF-R_-65" value="Attendance editing/ Leave Assignment (Time Modification Request)" style="whiteSpace=wrap;html=1;rounded=0;fillColor=#A8DADC;strokeColor=#457B9D;fontColor=#1D3557;" vertex="1" parent="1">
          <mxGeometry x="318" y="440" width="215" height="60" as="geometry" />
        </mxCell>
        <mxCell id="aT_Ff60bsqaVyr6vF-R_-70" value="" style="edgeStyle=orthogonalEdgeStyle;rounded=0;orthogonalLoop=1;jettySize=auto;html=1;labelBackgroundColor=#F1FAEE;strokeColor=#457B9D;fontColor=#1D3557;" edge="1" parent="1" source="aT_Ff60bsqaVyr6vF-R_-67" target="aT_Ff60bsqaVyr6vF-R_-69">
          <mxGeometry relative="1" as="geometry" />
        </mxCell>
        <mxCell id="aT_Ff60bsqaVyr6vF-R_-73" style="edgeStyle=orthogonalEdgeStyle;rounded=0;orthogonalLoop=1;jettySize=auto;html=1;entryX=0.895;entryY=1.063;entryDx=0;entryDy=0;entryPerimeter=0;labelBackgroundColor=#F1FAEE;strokeColor=#457B9D;fontColor=#1D3557;" edge="1" parent="1" source="aT_Ff60bsqaVyr6vF-R_-67" target="aT_Ff60bsqaVyr6vF-R_-65">
          <mxGeometry relative="1" as="geometry">
            <mxPoint x="510" y="510" as="targetPoint" />
            <Array as="points">
              <mxPoint x="510" y="620" />
            </Array>
          </mxGeometry>
        </mxCell>
        <mxCell id="aT_Ff60bsqaVyr6vF-R_-67" value="Leave Balance sufficient?" style="rhombus;whiteSpace=wrap;html=1;rounded=0;fillColor=#A8DADC;strokeColor=#457B9D;fontColor=#1D3557;" vertex="1" parent="1">
          <mxGeometry x="373" y="570" width="104.5" height="100" as="geometry" />
        </mxCell>
        <mxCell id="aT_Ff60bsqaVyr6vF-R_-72" value="" style="edgeStyle=orthogonalEdgeStyle;rounded=0;orthogonalLoop=1;jettySize=auto;html=1;labelBackgroundColor=#F1FAEE;strokeColor=#457B9D;fontColor=#1D3557;" edge="1" parent="1" source="aT_Ff60bsqaVyr6vF-R_-69" target="aT_Ff60bsqaVyr6vF-R_-71">
          <mxGeometry relative="1" as="geometry" />
        </mxCell>
        <mxCell id="aT_Ff60bsqaVyr6vF-R_-69" value="Advance Module (Bamboo HR)" style="whiteSpace=wrap;html=1;rounded=0;fillColor=#A8DADC;strokeColor=#457B9D;fontColor=#1D3557;" vertex="1" parent="1">
          <mxGeometry x="365.5" y="725" width="120" height="60" as="geometry" />
        </mxCell>
        <mxCell id="aT_Ff60bsqaVyr6vF-R_-71" value="Payslips generate" style="whiteSpace=wrap;html=1;rounded=0;fillColor=#A8DADC;strokeColor=#457B9D;fontColor=#1D3557;" vertex="1" parent="1">
          <mxGeometry x="365.5" y="865" width="120" height="60" as="geometry" />
        </mxCell>
        <mxCell id="aT_Ff60bsqaVyr6vF-R_-74" value="no" style="text;html=1;align=center;verticalAlign=middle;resizable=0;points=[];autosize=1;strokeColor=none;fillColor=none;fontColor=#1D3557;" vertex="1" parent="1">
          <mxGeometry x="510" y="595" width="40" height="30" as="geometry" />
        </mxCell>
        <mxCell id="aT_Ff60bsqaVyr6vF-R_-75" value="Yes" style="text;html=1;align=center;verticalAlign=middle;resizable=0;points=[];autosize=1;strokeColor=none;fillColor=none;fontColor=#1D3557;" vertex="1" parent="1">
          <mxGeometry x="420" y="665" width="40" height="30" as="geometry" />
        </mxCell>
        <mxCell id="aT_Ff60bsqaVyr6vF-R_-77" value="Forgot" style="text;html=1;align=center;verticalAlign=middle;resizable=0;points=[];autosize=1;strokeColor=none;fillColor=none;fontColor=#1D3557;" vertex="1" parent="1">
          <mxGeometry x="200" y="985" width="60" height="30" as="geometry" />
        </mxCell>
        <mxCell id="aT_Ff60bsqaVyr6vF-R_-78" value="" style="endArrow=classic;html=1;rounded=0;entryX=0.75;entryY=0;entryDx=0;entryDy=0;exitX=0.932;exitY=1.057;exitDx=0;exitDy=0;exitPerimeter=0;labelBackgroundColor=#F1FAEE;strokeColor=#457B9D;fontColor=#1D3557;" edge="1" parent="1" source="aT_Ff60bsqaVyr6vF-R_-61" target="aT_Ff60bsqaVyr6vF-R_-65">
          <mxGeometry width="50" height="50" relative="1" as="geometry">
            <mxPoint x="390" y="430" as="sourcePoint" />
            <mxPoint x="440" y="380" as="targetPoint" />
          </mxGeometry>
        </mxCell>
        <mxCell id="aT_Ff60bsqaVyr6vF-R_-82" value="" style="edgeStyle=orthogonalEdgeStyle;rounded=0;orthogonalLoop=1;jettySize=auto;html=1;labelBackgroundColor=#F1FAEE;strokeColor=#457B9D;fontColor=#1D3557;" edge="1" parent="1" source="aT_Ff60bsqaVyr6vF-R_-79" target="aT_Ff60bsqaVyr6vF-R_-81">
          <mxGeometry relative="1" as="geometry" />
        </mxCell>
        <mxCell id="aT_Ff60bsqaVyr6vF-R_-79" value="List of Course" style="rounded=0;whiteSpace=wrap;html=1;fillColor=#A8DADC;strokeColor=#457B9D;fontColor=#1D3557;" vertex="1" parent="1">
          <mxGeometry x="640" y="210" width="150" height="60" as="geometry" />
        </mxCell>
        <mxCell id="aT_Ff60bsqaVyr6vF-R_-84" value="" style="edgeStyle=orthogonalEdgeStyle;rounded=0;orthogonalLoop=1;jettySize=auto;html=1;labelBackgroundColor=#F1FAEE;strokeColor=#457B9D;fontColor=#1D3557;" edge="1" parent="1" source="aT_Ff60bsqaVyr6vF-R_-81" target="aT_Ff60bsqaVyr6vF-R_-83">
          <mxGeometry relative="1" as="geometry" />
        </mxCell>
        <mxCell id="aT_Ff60bsqaVyr6vF-R_-81" value="Start the course" style="rounded=0;whiteSpace=wrap;html=1;fillColor=#A8DADC;strokeColor=#457B9D;fontColor=#1D3557;" vertex="1" parent="1">
          <mxGeometry x="640" y="350" width="150" height="60" as="geometry" />
        </mxCell>
        <mxCell id="aT_Ff60bsqaVyr6vF-R_-86" value="" style="edgeStyle=orthogonalEdgeStyle;rounded=0;orthogonalLoop=1;jettySize=auto;html=1;labelBackgroundColor=#F1FAEE;strokeColor=#457B9D;fontColor=#1D3557;" edge="1" parent="1" source="aT_Ff60bsqaVyr6vF-R_-83" target="aT_Ff60bsqaVyr6vF-R_-85">
          <mxGeometry relative="1" as="geometry" />
        </mxCell>
        <mxCell id="aT_Ff60bsqaVyr6vF-R_-83" value="Completed?" style="rhombus;whiteSpace=wrap;html=1;rounded=0;fillColor=#A8DADC;strokeColor=#457B9D;fontColor=#1D3557;" vertex="1" parent="1">
          <mxGeometry x="675" y="480" width="80" height="80" as="geometry" />
        </mxCell>
        <mxCell id="aT_Ff60bsqaVyr6vF-R_-88" value="" style="edgeStyle=orthogonalEdgeStyle;rounded=0;orthogonalLoop=1;jettySize=auto;html=1;labelBackgroundColor=#F1FAEE;strokeColor=#457B9D;fontColor=#1D3557;" edge="1" parent="1" source="aT_Ff60bsqaVyr6vF-R_-85" target="aT_Ff60bsqaVyr6vF-R_-87">
          <mxGeometry relative="1" as="geometry" />
        </mxCell>
        <mxCell id="aT_Ff60bsqaVyr6vF-R_-90" style="edgeStyle=orthogonalEdgeStyle;rounded=0;orthogonalLoop=1;jettySize=auto;html=1;labelBackgroundColor=#F1FAEE;strokeColor=#457B9D;fontColor=#1D3557;" edge="1" parent="1" source="aT_Ff60bsqaVyr6vF-R_-85" target="aT_Ff60bsqaVyr6vF-R_-91">
          <mxGeometry relative="1" as="geometry">
            <mxPoint x="780" y="580" as="targetPoint" />
            <Array as="points">
              <mxPoint x="810" y="650" />
            </Array>
          </mxGeometry>
        </mxCell>
        <mxCell id="aT_Ff60bsqaVyr6vF-R_-85" value="Quiz" style="rhombus;whiteSpace=wrap;html=1;rounded=0;fillColor=#A8DADC;strokeColor=#457B9D;fontColor=#1D3557;" vertex="1" parent="1">
          <mxGeometry x="675" y="610" width="80" height="80" as="geometry" />
        </mxCell>
        <mxCell id="aT_Ff60bsqaVyr6vF-R_-93" value="" style="edgeStyle=orthogonalEdgeStyle;rounded=0;orthogonalLoop=1;jettySize=auto;html=1;labelBackgroundColor=#F1FAEE;strokeColor=#457B9D;fontColor=#1D3557;" edge="1" parent="1" source="aT_Ff60bsqaVyr6vF-R_-87" target="aT_Ff60bsqaVyr6vF-R_-92">
          <mxGeometry relative="1" as="geometry" />
        </mxCell>
        <mxCell id="aT_Ff60bsqaVyr6vF-R_-87" value="Certificate Generate" style="whiteSpace=wrap;html=1;rounded=0;fillColor=#A8DADC;strokeColor=#457B9D;fontColor=#1D3557;" vertex="1" parent="1">
          <mxGeometry x="655" y="780" width="120" height="60" as="geometry" />
        </mxCell>
        <mxCell id="aT_Ff60bsqaVyr6vF-R_-89" value="More than 75%" style="text;html=1;align=center;verticalAlign=middle;resizable=0;points=[];autosize=1;strokeColor=none;fillColor=none;fontColor=#1D3557;" vertex="1" parent="1">
          <mxGeometry x="620" y="720" width="100" height="30" as="geometry" />
        </mxCell>
        <mxCell id="aT_Ff60bsqaVyr6vF-R_-91" value="Attend Quiz Again" style="rounded=0;whiteSpace=wrap;html=1;fillColor=#A8DADC;strokeColor=#457B9D;fontColor=#1D3557;" vertex="1" parent="1">
          <mxGeometry x="755" y="520" width="120" height="60" as="geometry" />
        </mxCell>
        <mxCell id="aT_Ff60bsqaVyr6vF-R_-92" value="Add to a list of certifications" style="whiteSpace=wrap;html=1;rounded=0;fillColor=#A8DADC;strokeColor=#457B9D;fontColor=#1D3557;" vertex="1" parent="1">
          <mxGeometry x="655" y="920" width="120" height="60" as="geometry" />
        </mxCell>
        <mxCell id="aT_Ff60bsqaVyr6vF-R_-94" value="Less than 75%" style="text;html=1;align=center;verticalAlign=middle;resizable=0;points=[];autosize=1;strokeColor=none;fillColor=none;fontColor=#1D3557;" vertex="1" parent="1">
          <mxGeometry x="800" y="620" width="100" height="30" as="geometry" />
        </mxCell>
      </root>
    </mxGraphModel>
  </diagram>
</mxfile>
